<svg id="svg" xmlns="http://www.w3.org/2000/svg" xmlns:xlink="http://www.w3.org/1999/xlink" width="400" height="400" viewBox="0, 0, 400,400"><g id="svgg"><path id="path0" d="M76.282 1.483 C 70.828 5.079,71.105 2.260,71.099 54.302 L 71.094 101.183 49.920 122.271 C 38.275 133.870,27.728 144.730,26.483 146.406 L 24.219 149.453 24.219 260.542 C 24.219 367.893,24.269 371.776,25.713 375.972 C 29.398 386.686,37.506 394.811,48.170 398.480 C 55.033 400.841,344.894 400.866,351.753 398.506 C 362.467 394.820,370.592 386.713,374.261 376.049 C 375.739 371.752,375.781 368.562,375.781 260.542 L 375.781 149.453 373.517 146.406 C 372.272 144.730,361.725 133.870,350.080 122.271 L 328.906 101.183 328.901 54.302 C 328.895 2.260,329.172 5.079,323.718 1.483 C 320.222 -0.822,79.778 -0.822,76.282 1.483 M305.469 109.176 L 305.469 194.915 273.246 227.145 L 241.023 259.375 200.007 259.375 L 158.991 259.375 126.761 227.152 L 94.531 194.929 94.531 109.183 L 94.531 23.438 200.000 23.438 L 305.469 23.438 305.469 109.176 M185.463 47.677 C 140.457 55.745,110.059 100.645,119.360 145.313 C 129.913 195.990,181.391 223.604,231.250 205.334 C 243.618 200.801,247.536 194.387,243.106 185.925 C 239.636 179.296,234.265 178.550,221.535 182.931 C 153.138 206.467,109.219 112.734,172.371 78.004 C 208.677 58.037,255.067 83.143,257.601 124.129 C 258.825 143.925,237.279 146.884,235.467 127.168 C 231.281 81.631,164.844 83.266,164.844 128.906 C 164.844 157.068,198.148 174.864,219.859 158.304 C 223.198 155.757,223.677 155.757,227.016 158.304 C 239.967 168.182,263.327 165.058,273.719 152.058 C 280.903 143.070,282.366 138.057,281.819 124.288 C 279.892 75.725,233.732 39.024,185.463 47.677 M205.384 119.215 C 215.125 124.969,211.152 139.856,199.879 139.839 C 193.715 139.829,189.073 135.133,189.073 128.906 C 189.073 120.592,198.367 115.070,205.384 119.215 M71.094 154.097 L 71.094 171.476 62.314 162.695 L 53.533 153.915 62.105 145.317 C 66.819 140.588,70.770 136.719,70.885 136.719 C 71.000 136.719,71.094 144.539,71.094 154.097 M337.691 162.691 L 328.906 171.476 328.906 153.906 L 328.906 136.337 337.691 145.122 L 346.476 153.906 337.691 162.691 M91.601 315.038 L 47.656 358.983 47.656 271.094 L 47.656 183.205 91.601 227.149 L 135.545 271.094 91.601 315.038 M352.344 271.288 L 352.344 358.983 308.400 315.039 L 264.457 271.095 308.202 227.345 C 332.262 203.282,352.037 183.594,352.146 183.594 C 352.255 183.594,352.344 223.056,352.344 271.288 M287.891 329.688 L 334.761 376.563 200.000 376.563 L 65.239 376.563 112.109 329.688 L 158.979 282.813 200.000 282.813 L 241.021 282.813 287.891 329.688 " stroke="none" fill="#ccc" fill-rule="evenodd"></path></g></svg>