<svg id="svg" xmlns="http://www.w3.org/2000/svg" xmlns:xlink="http://www.w3.org/1999/xlink" width="400" height="400" viewBox="0, 0, 400,400"><g id="svgg"><path id="path0" d="M370.703 26.656 C 368.984 27.050,354.922 31.563,339.453 36.684 C 323.984 41.805,281.270 55.887,244.531 67.976 C 207.793 80.066,162.441 95.010,143.750 101.186 C 125.059 107.361,88.448 119.435,62.393 128.017 C 36.337 136.598,13.930 144.182,12.598 144.871 C -1.667 152.248,-4.567 172.216,6.975 183.584 C 11.233 187.778,12.310 188.300,56.206 207.452 L 101.084 227.031 114.184 287.826 C 129.902 360.777,128.616 356.365,134.933 359.004 C 141.600 361.790,141.162 362.043,180.665 332.509 L 214.821 306.973 253.663 338.749 C 275.026 356.226,293.683 371.017,295.123 371.619 C 307.577 376.822,321.626 371.969,327.610 360.396 C 329.864 356.037,400.000 55.708,400.000 50.415 C 400.000 34.794,385.715 23.209,370.703 26.656 M375.606 52.539 C 373.754 61.658,305.759 349.217,305.454 349.218 C 305.170 349.218,187.786 253.428,185.312 251.176 C 185.183 251.059,213.034 221.731,247.203 186.003 C 299.506 131.314,309.461 120.551,310.166 117.932 C 312.403 109.624,306.063 101.633,297.959 102.547 C 293.736 103.023,302.542 98.284,199.445 155.562 L 111.000 204.701 67.647 185.750 C 43.803 175.327,24.541 166.579,24.842 166.310 C 25.144 166.040,32.422 163.510,41.016 160.686 C 80.232 147.799,342.787 61.244,357.422 56.379 C 376.241 50.121,376.091 50.153,375.606 52.539 M194.656 205.537 L 156.456 245.448 154.046 253.388 C 152.720 257.755,149.453 269.063,146.787 278.516 C 144.120 287.969,141.728 295.952,141.471 296.256 C 141.215 296.559,137.531 280.641,133.284 260.882 C 129.038 241.123,125.753 224.768,125.983 224.538 C 126.716 223.805,231.614 165.674,232.249 165.649 C 232.583 165.636,215.666 183.585,194.656 205.537 M185.778 283.168 C 191.017 287.446,195.042 291.177,194.722 291.459 C 191.926 293.925,162.296 315.681,162.058 315.443 C 160.921 314.307,173.732 273.557,174.948 274.442 C 175.665 274.964,180.538 278.891,185.778 283.168 " stroke="none" fill="#ddd" fill-rule="evenodd"></path></g></svg>