<svg id="svg" xmlns="http://www.w3.org/2000/svg" xmlns:xlink="http://www.w3.org/1999/xlink" width="400" height="400" viewBox="0, 0, 400,400"><g id="svgg"><path id="path0" d="M71.891 76.616 C 49.383 82.508,32.286 99.703,26.570 122.195 C 24.127 131.810,24.127 268.190,26.570 277.805 C 32.272 300.241,49.848 317.823,72.195 323.445 C 81.870 325.879,318.130 325.879,327.805 323.445 C 350.058 317.846,367.846 300.058,373.445 277.805 C 375.874 268.151,375.860 131.760,373.430 122.195 C 367.757 99.872,350.002 82.108,327.805 76.548 C 318.205 74.143,81.096 74.206,71.891 76.616 M323.765 102.156 C 335.870 106.756,344.562 115.863,348.181 127.734 C 350.384 134.964,350.384 265.036,348.181 272.266 C 344.563 284.135,335.879 293.235,323.765 297.848 L 319.141 299.609 201.172 299.609 C 88.372 299.609,82.971 299.545,77.907 298.149 C 65.712 294.787,55.637 284.791,51.819 272.266 C 49.616 265.036,49.616 134.964,51.819 127.734 C 56.279 113.103,68.210 102.869,83.203 100.816 C 85.781 100.463,139.922 100.224,203.516 100.286 L 319.141 100.398 323.765 102.156 M86.328 124.634 C 85.898 124.760,84.587 125.075,83.413 125.334 C 74.858 127.219,71.536 140.172,78.016 146.380 C 81.024 149.262,194.774 212.244,197.763 212.682 C 199.150 212.886,201.427 212.795,202.823 212.480 C 204.924 212.006,309.437 154.577,318.974 148.656 C 330.013 141.802,325.482 124.820,312.614 124.820 C 307.986 124.820,312.359 122.552,250.976 156.783 L 199.998 185.212 145.897 155.187 C 96.939 128.015,88.885 123.885,86.328 124.634 " stroke="none" fill="#ddd" fill-rule="evenodd"></path></g></svg>