<svg id="svg" xmlns="http://www.w3.org/2000/svg" xmlns:xlink="http://www.w3.org/1999/xlink" width="400" height="400"
    viewBox="0, 0, 400,400">
    <g id="svgg">
        <path id="path0"
            d="M195.743 25.361 C 192.362 26.593,28.423 189.574,26.032 194.081 C 21.561 202.507,27.833 212.680,37.500 212.680 C 43.186 212.680,40.556 215.137,122.459 133.321 L 199.996 55.866 277.928 133.735 C 347.815 203.567,356.202 211.694,359.180 212.473 C 368.659 214.952,377.452 206.160,374.973 196.680 C 374.088 193.295,211.429 28.957,206.223 26.187 C 202.979 24.461,199.059 24.152,195.743 25.361 M68.157 226.558 C 62.257 230.156,62.506 227.894,62.503 277.783 C 62.500 319.494,62.598 322.737,64.025 328.185 C 70.015 351.053,88.115 368.707,110.749 373.756 C 120.447 375.920,281.369 375.629,290.506 373.431 C 311.462 368.390,328.046 352.705,335.420 330.950 C 337.937 323.524,338.417 234.634,335.961 230.657 C 331.202 222.948,318.759 222.948,314.058 230.657 C 312.562 233.110,312.505 234.681,312.489 273.828 C 312.469 324.627,311.941 327.626,301.084 338.658 C 289.828 350.095,290.785 349.988,200.000 349.988 C 109.383 349.988,110.268 350.086,98.973 338.777 C 88.120 327.911,87.531 324.577,87.511 273.828 C 87.495 234.681,87.438 233.110,85.942 230.657 C 83.617 226.845,80.057 225.006,75.000 225.006 C 72.087 225.006,69.883 225.506,68.157 226.558 "
            stroke="none" fill="rgba(255,255,255,0.85)" fill-rule="evenodd"></path>
    </g>
</svg>