<svg id="svg" xmlns="http://www.w3.org/2000/svg" xmlns:xlink="http://www.w3.org/1999/xlink" width="400" height="400" viewBox="0, 0, 400,400"><g id="svgg"><path id="path0" d="M253.361 30.549 C 247.340 32.864,241.963 38.110,238.565 44.983 L 235.700 50.781 130.847 50.781 C 67.120 50.781,24.443 51.075,22.039 51.531 C 13.548 53.142,6.519 58.341,2.458 66.016 L 0.391 69.922 0.391 195.703 L 0.391 321.484 2.303 325.370 C 4.865 330.576,10.048 335.606,15.471 338.148 L 19.922 340.234 118.059 340.444 C 228.098 340.680,219.055 341.161,220.039 335.018 C 220.422 332.625,220.163 331.811,218.488 330.136 L 216.477 328.125 120.080 328.125 L 23.683 328.125 20.240 326.307 C 17.979 325.112,15.992 323.189,14.453 320.704 L 12.109 316.920 12.109 217.639 C 12.109 112.349,11.999 115.578,15.752 111.303 C 20.931 105.404,12.100 105.904,118.750 105.469 L 214.453 105.078 218.899 102.895 C 227.120 98.858,229.657 95.094,240.625 70.668 C 251.221 47.071,254.009 42.807,259.501 41.811 C 260.936 41.551,282.380 41.441,307.155 41.567 L 352.200 41.797 355.119 44.160 C 361.371 49.221,360.938 43.568,360.938 119.988 C 360.938 190.270,361.017 192.120,364.093 193.766 C 366.430 195.017,369.901 194.641,371.728 192.938 L 373.438 191.345 373.438 120.702 C 373.438 39.014,373.985 44.954,365.687 36.656 C 357.626 28.595,360.033 28.900,304.854 28.947 C 259.363 28.986,257.256 29.052,253.361 30.549 M229.688 63.734 C 229.688 66.148,218.883 87.126,216.614 89.119 C 212.108 93.074,214.834 92.969,117.301 92.969 C 18.649 92.969,18.954 92.958,13.378 96.607 L 11.521 97.822 11.868 86.216 C 12.305 71.595,14.389 67.272,22.373 64.426 C 25.461 63.325,229.687 62.643,229.688 63.734 M45.559 137.505 C 41.858 138.997,41.075 144.271,44.105 147.301 L 46.023 149.219 80.859 149.219 L 115.696 149.219 117.614 147.301 C 118.822 146.092,119.531 144.491,119.531 142.969 C 119.531 141.447,118.822 139.845,117.614 138.636 L 115.696 136.719 81.481 136.768 C 62.662 136.796,46.498 137.127,45.559 137.505 M46.373 166.400 C 42.348 168.024,41.120 172.651,43.807 176.067 L 45.426 178.125 80.780 178.125 L 116.134 178.125 117.833 176.317 C 120.948 173.000,119.766 167.967,115.525 166.488 C 112.531 165.445,48.941 165.363,46.373 166.400 M292.473 190.561 C 289.015 192.670,285.942 196.994,285.401 200.513 C 284.777 204.571,284.436 204.892,278.095 207.379 C 273.165 209.313,272.434 209.420,271.249 208.382 C 263.542 201.631,256.473 203.408,244.643 215.070 C 232.313 227.224,230.709 233.519,237.531 242.969 C 238.171 243.855,237.834 245.458,236.145 249.547 C 233.736 255.381,233.168 255.922,228.694 256.637 C 220.385 257.966,217.968 263.286,217.970 280.248 C 217.972 297.071,220.511 302.289,229.357 303.651 C 233.472 304.285,233.779 304.605,236.323 310.924 C 238.366 316.001,238.435 316.504,237.262 317.800 C 230.436 325.342,232.553 333.168,244.643 345.086 C 256.314 356.591,263.856 358.504,271.231 351.829 C 273.766 349.535,285.156 354.853,285.156 358.330 C 285.156 362.538,289.661 368.618,293.996 370.260 C 297.493 371.585,322.245 371.346,324.923 369.962 C 328.334 368.198,331.903 363.634,332.425 360.368 C 333.144 355.876,333.662 355.348,339.752 352.901 C 344.911 350.828,345.529 350.735,346.757 351.847 C 354.449 358.808,362.138 356.538,374.747 343.584 C 385.565 332.470,387.269 326.451,381.675 319.116 L 379.562 316.346 381.913 310.712 C 384.457 304.613,384.854 304.226,389.275 303.519 C 392.540 302.997,397.104 299.428,398.868 296.017 C 400.494 292.872,400.494 267.284,398.868 264.140 C 397.104 260.728,392.540 257.159,389.275 256.637 C 384.854 255.930,384.457 255.543,381.913 249.444 L 379.562 243.810 381.675 241.041 C 387.272 233.702,385.565 227.679,374.747 216.598 C 361.934 203.474,354.521 201.284,346.743 208.323 C 345.495 209.452,344.907 209.356,339.683 207.177 C 333.518 204.604,333.133 204.213,332.425 199.788 C 331.903 196.522,328.334 191.959,324.923 190.194 C 321.259 188.300,295.709 188.589,292.473 190.561 M319.857 202.539 C 320.009 203.076,320.564 205.089,321.089 207.012 C 322.513 212.228,326.424 215.607,334.966 219.001 C 344.593 222.827,349.070 222.566,355.663 217.795 C 357.737 216.294,372.768 231.326,371.268 233.399 C 366.392 240.137,366.202 244.516,370.353 254.489 C 374.482 264.410,378.845 268.672,384.933 268.733 C 387.601 268.759,388.281 271.066,388.281 280.078 C 388.281 289.090,387.601 291.397,384.933 291.423 C 378.845 291.484,374.482 295.746,370.353 305.667 C 366.202 315.640,366.392 320.019,371.268 326.757 C 372.768 328.830,357.737 343.862,355.663 342.362 C 349.070 337.591,344.593 337.330,334.966 341.155 C 326.424 344.549,322.513 347.928,321.089 353.144 C 320.564 355.067,320.006 357.090,319.849 357.639 C 319.631 358.402,317.029 358.587,308.863 358.421 L 298.163 358.203 297.237 354.088 C 294.363 341.311,273.456 334.293,262.305 342.362 C 260.245 343.853,245.207 328.839,246.676 326.757 C 254.321 315.919,248.015 295.283,236.118 292.209 C 234.085 291.683,231.982 291.123,231.445 290.964 C 230.726 290.750,230.469 287.879,230.469 280.078 C 230.469 272.277,230.726 269.406,231.445 269.192 C 231.982 269.033,234.085 268.473,236.118 267.948 C 248.015 264.874,254.321 244.237,246.676 233.399 C 245.207 231.317,260.245 216.304,262.305 217.795 C 274.183 226.389,297.605 217.143,297.652 203.841 C 297.659 201.715,298.428 201.563,309.139 201.563 C 316.824 201.563,319.653 201.820,319.857 202.539 M298.525 241.079 C 268.867 249.055,258.798 286.798,280.531 308.531 C 305.796 333.796,349.219 315.808,349.219 280.078 C 349.219 253.611,324.017 234.223,298.525 241.079 M320.481 254.876 C 337.773 262.792,342.084 286.082,328.731 299.435 C 311.337 316.829,281.812 304.927,281.677 280.469 C 281.564 259.867,301.976 246.404,320.481 254.876 " stroke="none" fill="#ddddde" fill-rule="evenodd"></path></g></svg>